<svg xmlns="http://www.w3.org/2000/svg" width="1328" height="272" fill="none"><path fill="#231F20" d="m120.499 0 18.075 67.781-18.075 25.607-18.075-25.607zm85.208 35.293-35.148 60.71-30.887 5.325 5.325-30.888zM241 120.499l-67.781 18.075-25.607-18.075 25.607-18.075zm-35.291 85.208L145 170.559l-5.326-30.887 30.888 5.325zM120.501 241l-18.075-67.781 18.075-25.607 18.075 25.607zm-85.208-35.293 35.148-60.709 30.887-5.326-5.325 30.888zM0 120.501l67.781-18.075 25.607 18.075-25.607 18.075zm35.29-85.208L96 70.441l5.326 30.887-30.888-5.325zm255.963 5.197h56.522q27.735 0 46.006 11.173 18.403 11.042 27.604 30.627t9.201 44.824q0 25.37-9.201 44.955-9.2 19.585-27.604 30.758Q375.51 214 347.775 214h-56.522zm45.743 40.355v92.801h6.704q12.62 0 21.031-6.047 8.545-6.178 12.882-16.693 4.47-10.516 4.469-23.529 0-13.144-4.337-23.661-4.338-10.516-12.882-16.693-8.544-6.179-21.163-6.178zM443.548 40.49h113.964v39.828h-68.22v27.472h67.957v38.514h-67.957v27.867h68.22V214H443.548zm329.165 0V214H726.97v-93.327l1.971-32.73-7.492 37.988-24.318 72.558h-44.692l-24.186-72.558-7.361-37.988 1.84 32.73V214H577.12V40.49h64.935l30.101 107.918 2.761 15.642 2.629-15.642 30.101-107.917zm112.441 131.316q10.384 0 19.585-3.155t14.065-6.31l19.454 38.777q-6.178 5.258-21.294 10.647-14.985 5.39-35.491 5.39-19.19 0-36.148-6.704-16.956-6.704-30.101-18.797-13.013-12.093-20.374-28.392-7.36-16.431-7.361-35.754t7.361-35.753q7.361-16.563 20.374-28.656 13.014-12.225 29.97-18.928 17.088-6.835 36.279-6.835 20.506 0 35.491 5.39 15.116 5.388 21.294 10.646L918.804 92.15q-4.864-3.154-14.065-6.31-9.2-3.154-19.585-3.154-12.882 0-22.083 3.812-9.07 3.812-14.854 10.253-5.784 6.44-8.544 14.327-2.629 7.887-2.629 16.037 0 8.281 2.629 16.299 2.76 7.887 8.544 14.328t14.854 10.253q9.201 3.812 22.083 3.812m111.312-44.692q.001 13.144 5.254 23.923c3.6 7.098 8.59 12.75 14.99 16.957 6.4 4.206 13.84 6.309 22.35 6.309 8.5 0 15.94-2.103 22.34-6.309q9.6-6.31 14.85-16.957c3.6-7.186 5.39-15.16 5.39-23.923s-1.79-16.694-5.39-23.792q-5.25-10.647-14.85-16.957c-6.4-4.294-13.84-6.44-22.34-6.44-8.51 0-15.95 2.146-22.35 6.44-6.4 4.207-11.39 9.859-14.99 16.957q-5.253 10.647-5.254 23.792m-47.715 0q0-18.929 6.836-35.228 6.835-16.431 19.059-28.655 12.226-12.225 28.654-19.06 16.56-6.835 35.76-6.835c12.96 0 24.93 2.278 35.88 6.835s20.51 10.91 28.66 19.06 14.45 17.701 18.92 28.655c4.47 10.866 6.71 22.609 6.71 35.228q0 19.059-6.57 35.49c-4.39 10.867-10.61 20.418-18.67 28.656-7.97 8.149-17.48 14.503-28.52 19.059-11.05 4.557-23.18 6.836-36.41 6.836-13.68 0-26.03-2.279-37.07-6.836q-16.565-6.835-28.527-19.059-11.83-12.356-18.271-28.656-6.441-16.431-6.441-35.49M1184.7 82.159l3.42.657V214h-45.75V40.49h62.04l62.7 130.921-3.28.658V40.491h45.61V214h-62.3z"/></svg>