<svg xmlns="http://www.w3.org/2000/svg" id="Layer_2" data-name="Layer 2" viewBox="0 0 535.77 996.43"><defs><style>.cls-2{fill:#3d1a15}.cls-5{fill:#9f4723}.cls-6{fill:#00adee}.cls-7{fill:#ed3182}.cls-8{fill:#ff6b35}.cls-9{fill:#847b30}.cls-10{fill:#fff}.cls-11{fill:#040404}.cls-14{fill:#fde500}</style></defs><g id="Layer_1-2" data-name="Layer 1"><path d="m60.77 543.92-.46-1.88c-.34.27-.91.29-1.24.38-.56.16-.65 1.59 0 1.83.44.17 1.22-.35 1.7-.33" style="fill:#e9dcc4"/><path d="M298.67 301.27c-1.85 5.96-3.34 12.69-7.16 15.87l-2.58.7c-4.72 6.12-9.7 12.03-14.93 17.71l-.14 2.14c-2.72.54-2.65 1.33-.12 2.3l.2 2.08c2.66.54 4.45 2.39 5.35 5.53l34.02 34.4c3.39 1.73 5.76 2.32 6.16-2.13 5.78-7.87 12.46-26.79 9-36.47-.12-.33-.61-.53-1.21-.69 3.16-1.06 1.7-3.71-1.03-4.69l-23.46-34.94c-.97-1.44-2.92-1.99-4.11-1.79Zm-148.44 20.26c5.4 10.27 13.01 18.32 22.11 25.62l20.89 16.76c9.57-7.58 17.33-16.11 26.9-21.97 4.27-3.35 8.86-6.02 13.79-8.01l.27-1.55c-18.96-12.58-36.54-27.21-51.85-44.09-1.58.35-2.79 1.43-4.02 3.02-7.66 9.93-16.34 18.47-25.46 27.06z" class="cls-10"/><path d="M88.34 760.7c-.32.16-.57.32-.56.48.04 15.06.39 34.26 10.07 46.23.65.22 1.84.11 2.12-1.12l15.79-69.96-20.47 1.5.56-17.97c-3.49 5.8-4.4 11.16-5.75 16.98-.57 2.44-1.82 3.86-1.81 7.11l.07 16.75Z" class="cls-14"/><path d="m143.94 950.3 11.35 17.05c1.18 4.64-3.78 9.46-6.5 12.61l-11.6 13.97h116.13l-.44-57.99 150.48 9.29-.61-106.53-100.01 16.47-47.63.52-2.07 51.35-72.53-5.04-39.73-1.42-1.91 35.84c-.3 5.54 2.34 9.8 5.06 13.89Zm107.79-281.33 2.05 69.07 60.53-3.13 7.51-.13c.47-.03.92-.09 1.29-.29 2.96-1.57-9.89-57.97-13.52-65.11-.41-1.71-1.51-2.6-3.24-2.75l-53.18.36-1.46 1.98Z" class="cls-8"/><path d="M191.51 680.59c-.64.01-1.13.04-1.15.15-1.49 9.43-2.73 20.15-2.63 29.4-.06.44-.27 1.01-.5 1.25-.29.3-1.07.36-1.77.39l-30.89 1.07-5.07 31.59c26.36-7.58 54.01-9.45 81.43-5.36 7.85 1.17 15.1.96 22.23 3.57l-52.75-.33-38.62 3.85c-3.67.37-9.91 1.8-11.83 4.68-2.29 4.84 3.41 9.15 7.68 8.7l25.79-2.74c9.08-.96 17.87-2.04 27.25.1-16.41 5.27-32.82 7.53-50.03 8.59-15.75.97-25.2-.1-34.78 12.89 2.39 6.76 8.3 9.68 14.94 8.35 13.93-2.79 27.48-3.13 41.62-3.32l41.65-.58c3.7-.05 7.75.7 10.21 3.4 1.38 1.52.98 4.38-.22 5.62-.94.96-2.69 2.59-4.74 2.95-13.85 2.39-27.63 1.21-41.94 1.65-19.81.6-38.78.51-58.49-.93-4.71-.34-9.39 2.63-12.72 6.15l23.91 6.31-26.8 8.58c-3.39 1.09-5.04 3.67-4.03 6.92 2.17 6.95 9.93 1.47 18.85 3.06-4.23 4.49-11.78 4.07-13.62 7.59-.82 1.57.42 3.13.61 4.93l7.7 70.45 1.7 8.68c-4.08-3.28-5.82-6.47-8.29-9.67-2.06-1.69-2.7-1.07-1.67 1.37l29.4 40.41c.82-2.13.13-4.71-2.06-7.74-1.36-4.31-.41-38.98 1.38-39.91 36.34 1.25 72.75 3.34 109.25 6.27l2.57-2.72 2.26-48.57 45.57-.5 97.56-16.05c.91 34.09 1.03 68.09.34 102l-147.36-9.03-2.52 2.83.42 55.89 1.99 1.17h175.45c.37-2.4.71-4.81.89-7.22.19-2.4.35-4.8.23-7.17-4.25-84.04-9.14-167.25-41.96-244.84-2.72-12.45-10.87-12.25-21.11-11a514 514 0 0 0-40.99 14.03c-1.05-1.89-2.38-2.88-3.99-2.96l-.65-1.97-65.48 2.98-1.95-65.69-2.02-1.13-.97-1.96-55.02 1.68c-4.74.75-6.29 8.98-4.24 11.91Z" class="cls-8"/><path d="M337.19 813.36c-2.87.15-5.46 1.12-8.13 1.35l.1 1.77 12.01-2.33c1.29-1.88-2.48-1.63-3.98-.78Z" class="cls-2"/><path d="M337.19 813.36c1.38-.07 3.13-.38 3.98.78 2.73-.53 5.95-.03 8.15-2.59l-10.19.78c-1.07.08-1.85.36-1.95 1.03Z" class="cls-5"/><path d="M337.66 812.32c-.54-.58-15.78 2.32-16.26 2.97l-6.71.27-2.24.72-32.68 3.86-28.89-.78c-31.33-.84-61.81-2.88-93.31-1.8l36.16 6.28 30.68 10.03c6.16 2.01 13.05 1.54 19.65.18l85.22-17.59c13.97-1.88 22.82-3.75 20.04-4.92l-11.43.86a.3.3 0 0 1-.24-.09Z" class="cls-11"/><path d="M321.29 815.29c.58-.02 1.39-.03 2-.08.04-.69-.63-1.23-1.43-.89-.4.17-.66.47-.57.98Zm-8.94 1c.81-.1 1.58-.24 2.23-.72-.81.03-1.88-.26-2.23.72m171.71 67.61-1.18-.04c-1.22 2.96 2.26 3.06 1.18.04M172.67 51.69c-1.73 1.81-3.1 5.08-5.01 7.59-5.8 7.61-10.1 15.77-16.6 22.66-5.2-2.87-11.12-2.81-15.97.33-12.85 8.33-18.67 22.25-18.35 37.5.17 8.49 2.09 16.34 3.56 24.18.92-1.96 2.46-.9 1.95 1.44l5.23-11.08c2.1-4.44 2.93-8.91 6.56-12.39l8.68-8.31c4.55 4.27-.25 14.97 3.82 21.36 3.18 4.99 7.99 10.32 13.6 12.93 6.17 2.87 14.85-.86 18.29-6.19 2.53-3.91.86-8.64-.58-12.32l-6.89-17.69c8.04.97 14.96.6 21.52-3.05.26-7.99-.04-16.33 4.47-23.1 4.03-6.05 10.16-10.97 16.76-13.77 3.92-1.66 8.12-.23 12.36.14.72-16.45-.59-33.98 14.29-37.29-1.71 7.01-4.5 11.22-4.48 18.57 12.77-10.76 26.89-11.09 41.22-6.43 12.82 4.17 24.31 11.17 29.45 24.27 2.86 7.31 2.9 15.26 4.97 22.94 1.39 5.12 4.7 9.82 7.38 14.35 2.95 4.97 7.79 8.12 11.55 12.11l-4.26.6c10.45 11.59 30.83 6.06 44.66-2.7 1.09 5.1-1.09 8.94-3.29 12.94-2.78 3.21-3.85 6.36-3.99 10.93-2.82 3-7.41 8.47-5.54 13.09 3.87 9.51 14.99 12.94 24.48 13.4.38 3.25-2.17 4.3-4.92 5.33-9.74 3.67-18.09 10.05-25.24 17.21l1.5 2-5.46 12.21c-2.67 5.98-.81 13.69 5.17 16.95 14.03 7.67 29.56-1.31 37.83-15.88 1.72 7.39-1.68 12.82-3.38 19.9 4.26-4.54 6.99-9.95 9.36-15.62 3.6-8.61.53-18.37 5.26-15.81l-.53-4.91c-1.36-.87-1.62-2.25-.78-4.15-.77-4.11-2.34-8.49-4.89-12.38-4.69-7.15-7.64-14.81-11.38-22.41-3.31-6.73-4.03-13.2-1.09-20.27 5.32-12.79 4.1-26.58-2.41-38.7-3.35-6.24-4.6-11.91-4.33-19.23.54-14.39-2.88-29.75-13.15-40.76-15.85-17-37.68-28.96-60.98-31.66-18.7-2.17-37.38 2.66-54.1 10.04-8.62 3.81-14.67 10.34-21.53 16.24-5.33 4.58-25.86-2.02-44.54 14.13l-10.25 10.75Z" class="cls-2"/><path d="m402.1 190.08-.78-4.15c-1.49.34-1.8 1.18-1.69 2.75.1 1.31.86 1.96 2.47 1.39Zm-69.81-69.41c-1.24.14-.88 1.46.21 1.19 2.23.35 1.65-2.02-.21-1.19" class="cls-11"/><path d="M100.84 890.76c1.04.83 1.76 1.84 2.17 3.03.27.25.66.56.87.86q3.855 3.87 4.11 0c.99-8.43-4.59-25.85-2.73-47.6 1.21-14.08-1.91-27.47-8.75-39.33-4.53-8.41-7.11-17.43-7.76-27.05-.02-6.87-.54-13.52-1.58-19.94l-2.83-25.09-4.67-11.21c-3.79-12.41-9.42-23.93-17.05-34.39-2.27-3.12-6.7-3.24-10.28-2.46-7.38 1.61-8.93 10.58-6.33 20.11l23.78 87.01c1.44 5.26-2.96 11.51-5.64 15.45l-10.49 15.42L39.47 852c-2.23 4.15-.15 9.53 1.58 13.15l8.33-12.16c2.47 3.58 2.7 7.34 2.05 11.04l-4.31 24.49c-.51 2.89-.9 6.11.83 8.62 4.22 6.08 9.04 11.38 15.43 16.15.65-7.7-2.02-13.41-5.17-19.83l12.82-29.79c2.14-4.96 7.41-7.92 11.35-11.35l3.01-4.85c1.36 3.06 1.73 5.82 2.42 8.79l4.44 19.02-11.51-13.41c-.18-.06-1-.21-1.63.26l21.69 28.64Z" class="cls-5"/><path d="M96.53 807.71c.58-.23 1.09-.37 1.32-.29-5.05-8.57-8.16-17.92-8.35-28.2l-.24-12.53c-.05-2.45-.91-4.23-.92-5.98h-1.15l.1 12.93 1.56 15.64c.69 6.95 4.54 12.99 7.68 18.43" class="cls-2"/><path d="M103.01 893.78c.79-2.09-1.56-2.21-2.17-3.03.57 1.14 1.25 2.18 2.17 3.03" class="cls-9"/><path d="m92.123 876.344.495-.495.495.495-.495.495z" class="cls-11"/><path d="M63.92 794.77c-5.03 6.57-36.62 66.94-28.83 88.79-1.32 1.33-1.62 3.34-.92 6.03-.87 3.26-.6 5.61.83 7.05-7.65 4.05 1.3 25.64 6.48 31.01l-4.87 12.73 1.36 2-2.36.57c-3.77 9.55-5.65 14.32-5.65 14.32l1.33 2.03c-2.52.58-4.19 3-5.02 7.27-2.32 3.68-2.77 6.6-1.33 8.74l-2.46.93c-.5.67-6.01 14.85-5.79 15.66s.62 1.53 1.37 2.02H137.2l4.06-1.78c4.31-5.02 16.89-17.36 16.15-24.14-.07-1.69-9.22-15.41-11.02-17.63l-2.44-.08c-7.99-14.21-16.91-28.43-28.12-40.49-.19-.2-.69-.1-1.28.09l.62-.98-7.01-9.62q-1.05-3.855-4.26-4.65c.34-.93.05-1.21-.87-.86-.36-1.15-1.08-2.16-2.17-3.03l1.18-1.73-9.7-12.83c4.42-1.48-3.95-26.65-4.78-28.83-1.43-.91-2.51-1.23-4.12-.46-2.32 3.92-5.56 7.24-9.73 9.96-5.32 4.05-15.75 31.62-17.3 36.66.89.9 6.11 15.97 5.07 15.65-2.73-.83-15.26-14.54-12.5-19.46-.26-5.16 11.52-41.54-1.67-37.16-5.74 10.08-7.81 10.32-6.21.71 8.36-16.75 17.98-32.69 28.57-48.13 1.8-3.39 3.09-7.29 2.04-11.12l-24.1-88.27c-3.48-19.59 11.49-23.53 19.96-4.49 5.52 11.47 10.49 23.1 14.9 34.9l2.6 23.37 2.13 1.21c-.16 1.92.61 1.91 1.15-.01l1.98-1.12c-.48-9.96-.29-18.76 3.08-28.23-.82 4.6.14 7.4 2.9 8.4l16.79-1.23-15.25 68.89c-1.85-3.12-1.3 3.08-1.62 3.87 7.66 13.93 8 29.14 6.68 44.59q1.095 18.9 3.21 37.44l1.89 1.32c-5.04.6 5.85 12.18 6.99 14.05.15.17.63.05 1.22-.16-1.12 1.49 6.11 10.29 6.84 10.55 1.87.65 2.57-.48 3.19-2.3-3.61-25.86-6.68-51.86-9.19-78-2.14-3.71.35-6.21 7.48-7.49 12.64-7.62-3.18-7.79-9.68-6.15-4.55-.08-5.43-4.37-1.62-6.43l26.1-8.38c2.64-1.11 1.82-2.59.17-4.53l-19.3-5.09c2.07-1.55 4.93-3.24 7.59-3.2 31.08 1.48 62.09 1.6 93.03.37 15.6 1.53 24.26-13.49 6.28-16.86-29.34.18-60.1-.48-89.62 4.07-3.87.01-7.89-2.46-9.28-6.16-.64-1.7 9.94-9.71 13.56-9.63q32.685-1.95 64.98-9.09s1.57-.94 4.7-2.81c-2.97-3.19-7.22-4.43-12.75-3.69-14.19 1.05-28.27 2.34-42.23 3.88-29.09-15.25 88.66-13.34 95.51-12.95 9.68-7.3-25.77-7.42-28.8-8.54-24.59-1.53-47.08-.95-71.11 4.94 1.2-8.95 2.76-17.7 4.68-26.26l29.65-1.07c2.57-.82 3.68-1.65 1.34-3.55-.13-1.97-.63-2.39-1.51-1.27l-1.65-1.72c-9.69.48-18.48-8.64-21.8-17.2-2.04-9.25-5.29-9.87-7.03-.54 1.07 9.7-1.25 14.68-6.95 14.95-13.84-58.19 17.39-167.29-1.61-224.25-7.83-4.31-13.32-10.18-16.47-17.62l-16.37-71.15c-3.45-2.27-4.93.2-6.32 3.31-.8 10.54-3.04 20.52-6.73 29.94-5.57-15.48-5.68-32.6-6.59-48.71-1.39-1.3-2.61-.49-4.08.53-.74.51-2.97 16.65-.54 17.15-.67.66-1.26.43-1.94 0 1.14-1.23.62-1.7-.82-.87-.6-2.58-1.47-2.3-1.82.31l-1.87 1.31c3.56 29.92 4.36 60.57-4.88 90.36l-8.47-35.16c-2.77-2.36-4.22-1.9-4.69 1.71.33 15.48.51 30.92.55 46.3-4.72 19.45-9.75 38.8-15.1 58.03-4.76-7.49-6.84-15.13-4.65-24.14 12.43-51.98 17.19-105.93 22.76-158.7 8.61-24.14 39.75-31.48 62.3-36.63 16.01-.84 29.99 4.16 39.42 18.22 22.18 21.89 22.45 16.26 43.46-1.18l4.41 4.51c3.27 2.42 11.31 4.74 11.31-.65.84-.92 1.44-1.67.05-2.08-2.47-3.99-9.91.64-7.99-11.04l-1.98-1.95c-4.19.04-8.16 2.16-11.9 6.37l-14.92 13c-12.01-8.76-23.3-18.57-33.86-29.44-2.55-4.5-5.62-7.94-9.22-10.34-15.25 8.56-31.87 14.05-49.12 18.68-8.78 2.36-17.68 6.18-23.77 12.74-25.54 29.99-29.17 74.23-29.46 112.17-6.65 26.89-13.65 55.27-23.41 81.58l1.52 1.74c-5.19 17.71-12.34 39.92-10.77 58.46-.41 11.09 1.85 13.95 6.73 23.5-25.88 25.5-7.33 41.46-21.95 38.06" class="cls-11"/><path d="m43.52 830.17.98.72-2.9 1.36" class="cls-11"/><path d="M38.19 678.69c4.04 2.66 2.13 6.63 1.42 11.06 6.68-3.92 12.95-6.16 21.34-6.59l-11.79-20.33c-2-3.45-2.9-7-3.97-11.65-11.22 3.5-18.81 13.31-19.28 25.4-.28 7.12 2.32 19 4.27 19.63 2.97.96 2.82-9.26 7.99-17.51Z" class="cls-6"/><path d="m93.42 653.82 4.03 10.45 9.86-.44-2.04-31.46-2.47-35.5c-3.57 8.09-6.82 16.16-4.87 24.32l2.88 12.06c2.35 9.83-10.31 13-7.39 20.56Z" class="cls-14"/><path d="M88.14 393.57c-.05.63.37.96.96 1.56.37.38.74.58 1.02-.08.23-.56.04-1.21-.04-1.49h-1.94Z" class="cls-2"/><path d="m81.1 890.51 49.89 73.24c4.11 6.03 12.45 9.38 18.91 5.56l-69.75-99.88c-3.8 1.96-6.73 2.02-11.72.96z" class="cls-10"/><path d="m103.89 894.65 10.65 15.25 1.67-1.37-6.53-8.47c-1.58-2.04-1.92-3.35-1.67-5.42-1.31.26-2.72.24-4.11 0Z" class="cls-9"/><path d="M216.77 438.99c1.03 3.35 2.95 6.63 5.77 9.82l3.52 8.57a51.7 51.7 0 0 0-11.27-2.19l-2.03 1.92c-.91.74-1.66 1.52-1.87 2.42-2.45 10.46-4.18 24.67-4.72 35.45-.05.93.45 1.88 1.1 2.85-1.97-.31-2.07 1.35-.12 1.85 1.71.74 2.86 2.3 4.1 4.04l10.74 15.05c4.84-16.84 13.51-22.06 30.68-25.71l-5.77-11.15c-6.55-12.66-11-26.23-9.89-40.55.13-1.71.84-3.4 1.57-4.13 4.82-4.87 28.96 4.31 38.08 24.83l4.47 13.25c1.5-5.04 1.97-10.38.81-15.65-3.74-17.01-10.74-32.35-20.34-47.39 8.58.8 17.06 3.29 23.16 9l12.47 11.67c.69-.34 1.66-1 1.49-1.47-2.3-6.26-10.16-22.77-13.77-28.1l-2.3-.17-2.89-.87c-15.79 6.15-34.04 3.13-47.97-6.22l-3.03.23c-.57-.06-1.03-.09-1.06.02-3.77 11.89-8.07 25.5-10.84 37.56-1.19 2.38-1.22 4.08-.09 5.09Zm-.27 149.97-1.67 2.36.4 10.59c-3.56-6.36-8.42-10.42-14.55-12.19l-1.51 1.87c-.84-.23-1.49-.12-1.55.55-.88 10.39-1.68 20.82-2.47 31.22-.06.72.48 1.1 1.33 1.28 2.93 11.82 13.28 21.94 24.96 25.3.08 3.13 8.4 4.03 9.49 1.19 15.4-25.84-6.4-42.83-11.13-71.04 3.4-1.41-1.35-5.73-3.57-6.1-6.35-1.06-2.73 11.9.27 14.99Z" class="cls-7"/><path d="M241.14 337.92c-.69.38-.64.74.09 1.07l2.05 3.56c-3.2 14.8-7.4 29.43-12.59 43.89l.67.91.6 2.24c8.64 5.81 21.7 9.02 32.12 8.16 4.03-.33 12.68-1.46 12.27-6.21l1.34-1.72-11.77-22.36c-4.21-10.9-.08-18.25 8.01-25.93l-.17-1.55.12-2.3-3.18-1.54c-8.83.72-17.67.69-26.52-.08l-3.04 1.85Z" class="cls-5"/><path d="M318.47 598c.85-.34.82-.68-.05-1.04l1.01-2.1c3.46-.82 1.37-6.31.24-8.88-1.15-2.6-3.34-7.43-6.37-5.46-15.86-12.47-37.05 2.73-45.89 22.46 9.54 1.49 15.34-4.97 25.97-2.8 6.15 1.26 18.69-.16 25.1-2.19Z" class="cls-7"/><path d="M231.36 387.35c-1.76.53-3.69 7.05-2.59 8.97 14.48 11.24 37.47 14.88 53.89 6.86 1.33-2 .61-4.7-2.13-8.12-.81-2.68-2.2-3.86-4.17-3.53-9.69 7.47-27.33 4.06-39.31-.97-2-.84-3.38-2.89-5.69-3.21" class="cls-10"/><path d="M199.18 591.59c7.83.17 12.17 8.41 17.25 16.36 1.37-6.89 1.01-13.07.08-18.99l-10.9-20.01c-1.2-2.19-3.64-5.19-5.64-2.76-.79.96-2.87 23.7-2.05 24.63.31.35.77.58 1.27.77Z" class="cls-7"/><path d="M196.48 624.64c-.49-.03-.96 0-1.34.19-1.03.52-2.24 21.99-1.82 23.07l2.03 1.24 24.44 2.63 1.65-1.82c-9.61-6.79-17.55-11.57-22.92-23.41-.49-1.07-1.08-1.71-2.05-1.89Z" class="cls-10"/><path d="M207.15 499.67c-2.23-.32-2.9 11.58-2.43 12.06.33.34.78.56 1.26.74l-.67 2.25c-.5-.03-.97-.02-1.34.18-1.07.55-2.23 22.75-1.92 23.96 3.82 7.31 7.65 14.73 11.47 22.24l25.91 29.79q-8.775-7.41-18.21-11.64l-1.41.82-1.54 2.57c3.31 12.01 7.62 23.66 12.96 34.96 4.03 10.06 4.57 20.92-.91 30.59l.63 2.93c.31 2.99 9.43 3.53 12.35 3.42l1.56-1.82c3.43-.86 5.36-3.82 5.8-8.88.13-7.56-.93-15.13-3.19-22.71.85-1.03 2.26-2.38 3.01-.95 4.2 8.05 3.36 21.81 1.81 30.59l1.41 2.9 3.42 2.34c16.24 1.1 45.06 2.32 58.75-6.86 2.85-1.91 5.05-4.06 5.04-7.7q-3.435-9.585-5.76-19.35c-1.85-4.57-3.64-5.71-7.87-2.23-7.37 6.06-15.71 14.13-21.16 21.66l-.7-.5c11.6-11.58 23.14-23.25 32.91-36.98 1.69-2.25 2.89-4.35.16-6.07l-1.76-1.55s-4.93.72-14.79 2.17c-11.21-1.46-20.31-.16-31.08 2.6 6.25-14.04 24.14-29.96 39.93-20.08l2.52-.62c2.85 1.12 2.52-8.44 1.9-9.87-.53-1.25-15.71-13.2-17.93-14.63q-28.77-14.475-57.21-30.96c7.94 2.37 15.86 2.71 23.95 1.01 7.03.81 13.9 2.95 20.63 6.44 3.8 1.32 6.48 2.02 5.98-2.88-2.48-3-3.42-5.72-2.81-8.14l26.19 17.21c2.47.79 3.26.62 4.58-1.66 2.8-4.81 4.92-19.11 5.53-25.21 2.92-29.17-10.83-54.73-24.4-79.17l-2.49.27c-5.64-8.69-12.84-16.46-22.95-20.05-3.03-1.08-11.89-3.81-13.84-.86-.39.58-.03 1.66.55 2.88 9.26 15.89 18.69 33.74 19.49 52.29-3.44-12.79-12.45-22.68-23.92-29.03-37.67-20.86-17.34 38.56-6.87 53.46-13.15 2.68-24.1 9.47-28.43 22.71l-10.64-14.57c-.9-1.23-2.17-.92-3.47-.08Z" class="cls-7"/><path d="M244.85 652.72c.13 3.1 7.8 3.8 8.84.96 2.78-12.17 2.84-24.53-2.35-36.7-1.7.03-5.66 1.83-5.86 4.08 1.61 11.7 7.27 20.1-.62 31.66Z" class="cls-7"/><path d="M205.31 514.72c1.04-.37.6-1.47.67-2.25-2.2-.34-2.68 1.33-.67 2.25" class="cls-2"/><path d="M318.42 596.96c2.95.64 3.55-.55 1.01-2.1-.88.41-1.05 1.27-1.01 2.1" style="fill:#ce7f29"/><path d="m85.51 393.02.86-.47c-1.38-2.81-1.06-2.76.95.15.06.48.33.87.82.87.78 1.02 1.69 1.39 1.94 0l2.67-17.96 1.23 21.93c.61 10.91 2.17 21.33 6.83 31.59 5.64-7.97 6.73-16.36 7.77-25.19.49-4.21-.06-8.87 4.03-12.36l15.31 68.49c1.11 4.97 3.97 9.95 7.14 13.61l10.51 7.49c7.44 21.41 6.72 42.72 5.13 65.34l-7.13 101.08c-.8 11.36-1.36 21.58.11 32.81l3.25 24.87c.6 2.09 5.53.83 7.14-.05 5.46-2.98 1.77-14.39 5.08-21.54 1.35 7.7 3.74 12.98 9 17.95 5.04 4.76 10.99 8.87 18.08 7.27.47-.04.84-.1.86-.21 1.3-8.79 2.54-18.6 3.22-27.45.02-.23-.44-.5-1.04-.78.61 0 1.1-.04 1.15-.22.46-1.48 1.27-6.62 1.52-8.48 3.91-57.61 7.9-115.47 13.84-172.68.08-.73-.4-1.12-1.27-1.32l1.44-.49c2.42-34.83 11.9-69.7 22.75-104.27 4.67-14.85 9.27-29.72 13.83-44.61.59-1.92 1.01-3.81.75-5.84 2.46-1.63.68-4.28-2.05-3.56-1.41-1.68-4.35-3.48-6.43-3.07.4-2.17-.98-2.45-4.16-.84l-10.51 6.86c.18 4.83-1.32 9.1 2.63 11.84 2.2 1.53 4.92 1.81 7.34 1.15.46.61.45 1.31-.05 2.08-5.36 3.21-11.78-.23-14.83-7.18l-18.42 15.34c-3.05 2.54-6.01 1.93-9 .24-10.45-5.93-17.57-14.47-25.19-23.46-2.44-2.88-23.71-10.06-31.66-7.76l-22.34 6.47c-9.31 2.69-18.59 5.02-26.05 11.8-5.78 5.25-14.53 12.46-15.46 20.64l-4.6 40.35-2.48 28.54c-1.51 17.37-3.81 33.74-7.62 50.8-3.48 15.59-7.78 30.64-8.79 46.68-.46 7.3 4.32 14.19 7.21 20.23 3.41-4.54 3.94-9.08 5.15-13.88l12.13-48.07-.09-28.71c-.02-6.89-1.7-13.32.06-20.19l10.58 43.93c7.22-24.87 11.41-49.96 9.12-74.98l-2.27-24.78Z" class="cls-6"/><path d="m189.26 680.44-3.04 28.44 1.51 1.27 3.78-29.55c.03-2.79-1.35-2.71-2.25-.15ZM85.51 393.02l1.82-.31c-.31-2.62-1.57-4.89-2.67-7.35-1.82 3.32.68 5.88.85 7.66m144.59-38.09-.05 2.08.99-.59c.25-.15.99-.78.89-1.06-.16-.47-1.3-.56-1.83-.42Zm-25.6 142.82c-.26 2.86 2.05 2.73 2.77.07.89-13.75 2.53-27.33 5.49-40.72 2.45-2.69 13.69 1.67 13.77.9.67-5.99-7.44-17.75-9.77-19.01l12-42.68 2.59-8.97 11.73-38.2c.77-2.5 1.39-4.51.19-6.6-4.7 18.89-11.63 36.76-17.24 55.84-5.85 19.89-12.08 38.72-16.32 58.99l-5.21 40.36Zm29.69-165.37c-5.32 2.2-10.62 4.97-14.07 9.56 1.58-.64 4.18-.58 6.27-2.79 2.08-2.2 5.88-4.46 8.39-3.24 1.67.63 1.91.43.85-1.01.18-.87.39-1.85.2-2.99-.43.24-1.12.24-1.65.46Z" class="cls-2"/><path d="M164.6 652.01c-.84-2.9-.6-5.92 1.42-7.32 4.16-2.89 10.65 1.37 14.19 7.24.81 1.34 3.53 3.7 4.86 2.29 1.19-2.69-.67-6.51-2.37-8.88l-18.24-25.35c-.54-.75-1.72-.79-2.22-.73-.62.07-1.08.91-1.27 1.94l-4.16 23.54c-1.35 7.64-2.36 15.7-.63 23.35 1.37 6.06 10.04 7.96 14.45 4.66l-6.04-20.74Zm4.15-36c6.69 3.16 14.07-2.11 16.98-7.98-3.99 0-7.36.52-10.22-1.53-2.54-1.82-3.27-5.51-2.86-9.69-7.36 5.51-9.66 16.49-3.91 19.2Zm10.49-107.55c6.7 3.88 13.96.31 16.87-5.89-4.75 1.68-8.38 1.84-11.26-.67-2.73-2.38-2.84-5.98-1.6-10.63-5.93 3.33-7.52 11.06-4.01 17.19m33.89-94.63-7.3.22c-5.16-.97-7.9-5.3-6.64-10.5-2.59 1.52-3.83 3.86-3.82 6.44.02 2.39 1.35 5.16 3.95 6.35 4.57 2.09 10.12 1.57 13.81-2.52Z" class="cls-11"/><path d="m235.64 334.91-.85 1.01 6.43 3.07c-.14-.24-.14-.73-.09-1.07-1.49-1.3-3.5-2.46-5.5-3.01Z" style="fill:#dfbf9c"/><path d="m329.38 342.85-.78.99q1.665 18.42-7.89 36.12l-3.83 3.51c-11.43-4.61-26.15-15.01-33.98-24.64-1.09-1.34-1.71-2.99-2.24-4.61-.46-4.3-2.57-15.31-8.28-11.3-4.01 2.82-5.01 6.73-4.94 11.37.06 3.78 8.1 23.69 10.12 28.46l32.1 68.04c12.09 24 17.75 50 19.5 76.68l7.18 152.83c.35 12.75 1.96 25.28 4.84 37.57l2.39 1c14.98-.16 29.76.56 44.63 2.95 8.11-3.75 15.98-8.32 23.61-13.7l-.26 2.03c-5.66 6.78-11.7 13.36-18.14 19.72-5.99 8.87-1.39 21.29 10.56 17.35l-2.61 9.7c-.64 10.58 9.05 37.92 15.51 44.15 1.97 1.89 16.32-6.56 18.31-8.21 7.82-4.31 16.08-7.64 24.77-10.01 3-3.08 2.99-7.59 1.88-11.54l-10.88-25.77c-.27-2.28-.88-4.11-1.83-5.5l-4.72-38.99-2.65-6.44c-5.93-7.63-9.06-15.77-9.39-24.41 3.59-18.64 2.46-37.59-2.46-55.89a410 410 0 0 1-14.1-58.57c-.51-24 .26-48.03 2.31-72.1 1.65-31.49-4.72-60.92-14.86-90.46-4.06-11.84-12.41-21.89-23.72-27.17l-47.4-24.71c-2.05-1.15-3.15-.88-2.75 1.55" class="cls-6"/><path d="M327.28 342.7c2.23 7.87.26 15.71-2.19 23.8l-5.6 13.36c-.37 1.86.39 1.88 1.22.1 5.46-7.78 7.91-17.25 9.68-26.96-.05-3.74-.14-7.04-1.01-10.15.3-2.78-1.21-2.68-2.1-.15" class="cls-2"/><path d="m387.33 627.66 10.88-95.99c.24-2.07-.47-4.44-2.82-4.56-2.83 8.4-7.49 16.07-12.24 23.53-3.21 8.14-4.58 16.38-5.78 24.98l-3.75 26.85c-2.36-8.31-1.81-16.5-2.07-25.17l-1.14-38.36-.71-28.23-.87-13.77c-.05-.81-.79-2.16-1.31-2.13s-1.5 1.2-1.74 1.99c-4.35 14.46-5.73 29.24-4.68 44.77 1.56 23.1 5.11 45.58 10.18 68.08 1.49 6.62 2.39 12.37 3.13 19.06l6.73 60.79 2.77-29.97 3.43-31.84Zm72.98 169.76c-.89-3.47-1.57-6.63-3.43-10.14m27.18 96.62c.11.96-1.09 1.11-1.18-.04l-3.66-15.08" class="cls-11"/><path d="m450.33 740.06-3.88-34.16c-.97-8.49-5.61-16.3-10.07-23.4-3.13-4.99-3.08-9.5-2.14-15.14 2.74-16.51 2.16-33.17-2.18-49.39l-11.91-44.44c-3.92-14.64-4.56-29.21-3.59-43.79l1.21-18.18.51-5.79.47-13.7c2.17-25.54.18-50.9-6.68-75.61-3.03-10.89-6.17-22.19-11.57-32.37-5.28-9.94-12.61-15.81-22.27-20.68l-39.46-19.88c-4.28-2.16-7.98-5.02-12.54-5.54.76 1.13.66 3.38 1.03 4.69l2.1.15c.72-.76 1.69-.75 2.96-.08l51.32 27.37c9.32 4.97 15.49 15.41 19.09 25.47 12.58 35.13 16.56 71.91 12.91 109.02l-1.11 19c-3.34 57.25 11.35 66.45 16.95 105.19 1.72 11.88 2.61 24.13.13 35.67-4.39 20.43 11.05 27.23 12.35 39.87l3.07 29.98c.55 5.32 6.48 17.32 8.58 22.27l6.21 14.72c.94 2.22.68 14.73-2.65 10.03-11.6 2.89-21.48 6.78-31.05 13.81l-10.4 4.62c-5.91-11.09-9.76-21.94-13.73-33.41-2.06-5.93-.57-16.45 5.13-22.28-4.27.13-8.68 3.13-12.19 1.56-6.15-3.52-4.94-12-.13-16.8l14.76-14.73c2.21-2.21 2.62-5.78 1.94-9.15-9.01 3.05-20.53 15.78-26.74 14.88l-17.84-2.58-26.46-.39c-3.14-16.65-4-32.36-4.76-49.05l-6.04-131.63c-1.49-32.48-6.48-56.7-20.19-86.23l-14.15-30.47L279.4 382l-9.44-25.32c-1.63-4.36.16-12.03 4.68-13.28 5.22-1.45.2 11.26 8.66 18.78l14.71 13.07c5.16 4.58 12.05 7.43 18.49 10 2.05.67 4.17-4.09 4.21-5.29l-1.22-.1c-.66.82-1.79 1.79-2.64 1.81-1.19.03-1.91-.83-2.77-1.7l-35.46-35.89c-1.64-1.66-2.58-3.78-4.87-4.09-9.65 7.46-15.2 17.8-9.23 29.12l11.83 22.43 6.3 11.65 14.58 29.75c4.19 3.92 6.28 10.79 9 16.49 5.39 11.28 11.45 21.96 14.35 34.28 4.2 17.85 1.61 36.38-4.28 54.13l-27.04-17.89c-.83-.55-2.46-.56-3.04-.19-2.29 1.42-.37 7.03 3.55 12.06-10.7-1.94-18.05-9.64-28.96-7.3s-19.46-1.3-30.15-4.06c11.67 9.86 24.48 15.82 37.46 22.6l28.05 14.63 17.31 13.66-.2 9.19c4.07 3.2 6.36 9.48 6.14 14.34-.04.96-.27 1.71-1.01 2.1l.05 1.04c.19 4.03-3.35 6.36-5.59 9.34-6.2 8.26-11.6 16.54-19.78 22.98-3.67 2.89-6.85 6.41-7.69 10.73-.05.15-.29.33-.46.37-.91 1.04.57 1.02.4 1.08.5-.43.66-.78.76-.94 8.45-6.56 16.25-14.01 24.36-22.04 1.01-.55 2.79 2.5 2.88 3.64.53 6.14 3.96 11.85 5.47 17.72 1.03 4.01-4.4 7.28-7.78 8.46-18.74 6.59-38.14 6.43-57.35 4.35l-8.84-.96-13.92-1.6-9.49-1.19-26.77-2.88 1.81-22.42 2.7-33.05 2.03-25.1c6.64 7.1 8.05 18.59 15.3 22.47l-2.15-13.75c2.84 1.52 5.1 2.75 5.45 4.86 9.2 3.85 17.44 14.12 28.59 18.03l-31.35-35.72c-5.28-6.02-7.59-13.69-10.75-20.97l-2.99-4.2 2.01-22.49c.07-.82.17-1.58.67-2.25l1.17-12.8.12-1.85-2.77-.07-3.9 33.79-5.21 70.48-6.13 78.42 2.25.15c.38-2.96.87-9.88 4.94-10l55.29-1.63 33.88.04 21.66-.42 7.61 24.14 6.95 42.04c.31 1.52 1.55 3.21 2.97 5.44l34.83-12.61c7.41-2.68 15.12-3.2 22.62-1.08 10.66 23.79 17.69 47.82 24.69 72.72 5.53 19.66 9.06 38.61 11.32 59.06 5.02 45.46 7.8 90.42 10.5 135.62h14.06l-3.69-29.64-6.46-59.6-4.22-35.31 11.93 24.37c1.86 3.79 4.29 7.13 5.16 10.86 5.4 7.64 8.23 16.87 7.76 26.82-.5 10.52 1.71 20.44 7.6 29.16l2.68 5.32c8 7.42 13.72 17.08 15.92 28l4.57.02-4.08-21.72c-4.47-12.8-21.35-26.78-19.22-43.57 1.83-14.43-.67-26.94-5.92-40.45l-32.08-82.57c8.44-8.02 18.44-15 30.68-18.46 7.65 32.84 16.39 64.01 26.48 95.52l7.07 22.89 2.6.04-3.93-15.14" class="cls-11"/><path d="M235.84 331.92c-2.09 1.14-2.36 1.79-.2 2.99 1.01 1.46 3.71 2.65 5.5 3.01 10.74.42 22.01 1.59 32.74-.23 2.33-.4 3.46-3.49 5.12-5.25 4.75-5.04 9.79-9.33 12.52-15.3-2.58-10.53-2.93-21.24-.67-32.94-4.83 1.51-7.23 4.99-10.42 7.96l-13.4 12.46c-11.06 8.75-21.57 17.65-31.18 27.32Z" class="cls-5"/><path d="M484.08 993.93h14.29l1.81-1.41-2.22-16.09c8.96.47 13.18 8.37 14.96 16.27l2.31 1.21 16.85-.02c1.09-.19 1.32-.56 1.13-1.39-1.93-8.45-3.8-16.83-4.96-25.49-.31-1.68-.97-3.22-1.64-4.78-1.7-3.92-17.88-26.1-21.07-29.03l-1.91-.81c1.11-.05 1.21-.38.3-.98-.32-.41-.65-.4-1 .01-.29-.76.04-1.41.96-1.95.41-1.63-1.51-1.69-1.99-2.36h-1.23c-2.3-2.98-4.57-5.99-6.81-9.05l-1.22.51-.89-1.67c.31-1.6.08-2.74-.69-3.43-.71-.48-1.03-2.04-1.01-2.89.68-1.19.1-1.51-1.15-.94 1.15-1.84.4-3.9-1.9-4.09.63-.32 1.11-.62 1.07-.81-1.26-6.51-3.85-14.67-6.36-20.48q-13.92-48.99-27.24-98.22c-12.5.95-26.07 10.04-33.38 19.78 11.86 30.96 23.65 62.04 35.35 93.25 3.39 10.89 3.29 22.11 2.18 33.3 2.17 11.88 7.39 22.84 15.67 32.88 4.09 8.49 6.61 17.7 7.56 27.62l2.21 1.04Z" style="stroke:#040404;stroke-miterlimit:10;stroke-width:5px;fill:#9f4723"/><path d="M498.37 993.92h16.86c-2.52-11.68-7.67-19.91-19.65-19.51l2.78 19.51Z" class="cls-11"/><path d="m503.63 932.39 18.63 25.3c4.12 5.59 4.95 11.23 6.17 17.99l3.65 18.21 3.18.03c-3.75-8.59-4.04-17.77-5.48-27.19-.84-5.5-5.18-10.19-8.26-14.25l-15.33-20.17c-1.11-.62-1.96-.6-2.56.07Z" class="cls-2"/><path d="M492.65 918.58c.39.74 2.09 1.48 2.53 2.56 2.38 5.86 6.67 9.36 6.73 5.98l-7.36-10.23c-.57-.79-2.3.69-1.9 1.69m10.28 12.85 1.99-1-1.03-.95-1.42-.05c-.34 0-.76.87-.56 1.4.13.34.43.61 1.02.6m-11.86-17.95c-.16 1.28.13 2.37.69 3.43l.97-2.88c.16-.46-1.25-.43-1.66-.55m-2.17-3.83 1.15.94c.81-.13.94-1.01.89-1.76-.8-.22-1.65.06-2.04.82m15.03 21.77c.05.21.08.63-.3.98l2.56-.07c-.24-.32-.95-.71-1.28-.87-.25-.7-.57-.69-.98-.03Z" class="cls-11"/><path d="M502.93 931.43h1c.27-.02.73-.11.98.02v-1.02c-.8-.09-1.62.23-1.98 1" class="cls-2"/><path d="m495.28 968.4 14.88 1.15c-5.48-4.03-9.42-7.48-13.77-12.46-1.16 3.56-1.07 6.79-1.11 11.3ZM120.29 143.94c1.38 7.37 2.67 14.69 6.07 22.02 3.51 7.59 6.26 15.59 11.32 22.27 1.83 2.41 2.93 4.05 2.26 6.96-.35 1.51.48 3.6.83 5.11 2.88-.58 3.1.37.66 2.84 1.43 6.19 4.01 12.42 8.4 17.76 5.47 6.64 10.68 12.89 15.71 20 4.52 6.4 12.09 10.6 19.78 11.84 6.07.98 11.58 1.28 17.23 3.84-.24 10.33-1.51 20.32-5.33 29.89l-12.83-.2c-1.77-.03-1.78 1.48-2.03 2.02.31 1.1.66 2.18 1.14 3.2.47 1 .96 1.96 1.66 2.72 12.01 13.2 27.96 26.37 42.79 36.32.85.57 1.88.9 2.94 1.21s2.19.5 3.32.64c.68 1.74 1.39 1.38 1.65-.46l5.55-2.66c16.21-13.71 31.75-27.53 46.61-41.48-.08 13.67-.11 20.5-.11 20.5q-.21 6.03 3.63 8.85c2.24 1.04 4.01-.34 5.33-4.16 1.47-2.81 4.38-9.61 1.83-11.7-1.75.3-6.12-.07-6.71-2.17l3.18-25.39 18.13.42c8.82.2 15.98-5.09 23.44-8.86l18.26-4.85c4.65-1.24 8.78-5.06 12.19-8.52l21.66-21.95c9.41-9.53 13.94-22.05 13.79-34.95-1.02-3.45-2.27-2.61-4.3-.2-.36 7.07-1.98 13.68-4.86 19.84.67-3.68 1.2-10.11-3.74-8.65-14.05 26.25-55.45 22.13-34.27-11.54-.05-3.62 2.09-6.65 6.41-9.08 6.13-4.66 12.8-8.39 19.99-11.2 5.18-4.95 2.27-7.96-8.73-9.04-11.75-3.58-18.67-12.18-7.8-22.2.97-5.73 3.24-11.24 6.8-16.53 1.06-3.5 2.51-9.29-2.61-9.39-11.41 6.29-26.15 12.51-38.5 5.54-.22-.46-.07-1.69.46-3.66-13.15-10.91-19.8-24.81-21.12-41.89-7.7-29.98-46.31-44.36-72.14-28.14l3.63-12.14c-.73-7.49-9.14-1.53-12.1 2.38-4.5 9.21-6.4 19.4-5.72 30.55-20.23-3.82-36.7 19.1-33.08 38-6.22 2.21-12.42 3.07-19.05 2.21-1.97.28-2.41 1.69-2.39 3.59l6.97 17.9c2.23 7.57 1.03 11.76-6.86 14.64-13.18 4.82-26.34-14.11-22.82-26.48-1.24-15.95-14.35.32-18.17 6.81l-6.67 14.92c-1.46-.66-2.02.24-1.67 2.68Z" class="cls-11"/><path d="m140.76 200.3.66 2.84c1 .28 2.42.19 3.17-.62 1.5-1.61.23-6.08-2.81-8.54.11 2.75.48 4.89-1.02 6.32m201.99 50.53 8.63 3.66c2.94 1.25 6.43 1.79 9.07-.4 4.97-4.13 10.11-8.07 12.95-14.45-8.71 3.28-16.24 5.83-24.61 7.79-1.94.45-3.69 1.38-6.04 3.41Zm44.42-23.46h-.67l-.65.02.65.02h.67l.65-.02z" class="cls-2"/><path d="M196.96 161.27c3.27 5.94 7.52 12.44 13.23 16.94 11.6 9.15 27.7 9.05 40 2.23 1.57-1.47 4.51-1.92 4.77-4.93 2.22-2.3 3.43-4.49 3.64-6.58l1.48-.26c8.29-10.86 12.38-5.04 15.77 5.02 2.82 20.14 29.95 31.9 46.53 21.3 1.46-.94 3.14-2.16 2.73-3.91.63-.45 1.58-1.4 2.54-1.28 2.87-2.1 5.84-3.99 8.92-5.68l.67-1.92c6.76-7.97 19.18-24.72 15.79-31.04-.94-1.76-2.81-2.87-5.03-3.56-21.98-6.86-44.49-3.86-65.44 3.95l-.99-.68c-8.09 1.23-16.08-.05-23.99-3.82l-6.19-3.98c-17.08-10.98-36.33-17.58-56.6-17.08-1.81.04-4.03.86-4.81 1.78-3.94 4.61 1.75 24.03 6.97 33.51Z" class="cls-10"/><path d="M258.89 146.41c-.29-.11-.79-.02-1.3.63 6.54 4.2 16.95 7.5 24.98 4.51l-.15-1.92-2.04-1.51c-6.56 1.33-13.13-.73-19.27-2.99l-2.23 1.28Z" class="cls-2"/><path d="M281.32 169.9c1.14 13.31 11.3 22.04 24.35 22.24 16.6.26 30.93-12.96 32.4-29.66.38-4.36-3.91-7.94-7.14-9.51-6.03-2.92-12.02-2.65-18.5-2.77-14.82-.28-32.4 4.65-31.11 19.71Zm-67.11 5.53c13.22 9.88 30.41 7.16 38.37-6.28 5.07-8.56 1.84-17.97-6.4-23.03-9.93-6.09-20.97-10.16-32.97-10.44-4.45-.1-10.62 2.53-11.49 7.23-2.24 12.05 2.68 25.18 12.5 32.52Z" class="cls-11"/><path d="M282.91 269.62c-20.93 5.99-44.18-4.48-41.66-13.13.31-1.05 1.52-1.98 3.1-2.41l8.52-2.78c-.67-2.25-2.86-3.14-6.56-2.69l-.72-3.85 10.99 1.93 1.81-1.96c3.42-3.18-5.43-5.97-8.05-4.33-6.36-3.65-12.79-7.6-17.49-13.32 3.44-1.71 5.42-3.96 5.95-6.76-3.06-.56-8.89 1.11-11.39-1.79-6.08-7.06-9.92-16.09-12.37-25.15 13.69.03 25.75-4.16 35.15-12.95l-2.74-.81c-18.98 9.16-38.6 1-47.76-17.56l-2.73-.81c-5.26 9.86-1.68 23.61-.58 35.99l-5.33-6.77c-1.18-1.5-4.11-2-5.56-.72-1.6 1.41-.68 8.96 2.94 11.87 1.89 1.52 4.82 1.33 7.23 1.79 2.51 10.87 2.09 22.2 6.91 32.17 5.07 10.49 13.38 18.73 21.9 26.76 14.37 13.54 36.15 17.23 54.37 10.68 2.22-.8 3.52-1.83 4.06-3.42Zm-54.64-145.81 2.08-.93c.11-14.16 3.11-27.43 8.99-39.81l-.36-3.26c-7.88.6-14.01 5.63-20.84 10.45-7.41 9.53-12.09 20.94-13.32 33.82 8.68 3.42 13.6-1.68 23.43-.26Z" class="cls-2"/><path d="M238.99 79.81c-4.71 7.52-7.9 15.8-8.9 25.09l-1.82 18.91c6.42.93 12.06 4.69 18.47 6.91 7.5 2.6 12.17 7.55 12.16 15.7 7.39 2.81 15.81 5.63 23.54 3.22 3.5-1.09 5.34-5.79 8.07-8.23 9.66-2.38 20.19-3.98 30.15-2.05 4.02.78 7.45 5.25 12.08 3.39-8.74-3.96-16.73-6.98-23.44-12.94-11.96-10.62-21.94-22.39-30.75-35.69-10.73-16.21-21.71-22.99-39.55-14.31Z" class="cls-5"/><path d="M238.81 220.34c-2.91 1.24-4.76 4.4-9.11 6.1 5.36 6.82 12.15 12.6 20.65 13.98.68-1.78-.23-3.54-2.73-5.3-1.26-1.33-3.23-4.39-.58-4.54 9.19-.53 25.91 2.54 33.86 7.17l2.81-.8c.59-.52 2.37-.16 2.81-.8.51-.76-.05-2.61-.81-3.37l-12.82-12.96c-4.29-4.33-10.58 1.41-14.52-2.42-2.51-2.43-6.04-2.83-9.51-1.34l-10.04 4.29Z" class="cls-11"/><path d="M250.35 240.42c3.07 2.53 8.02 1.99 8.05 4.33-.22 3.1 9.45 2.85 10.09-.14.35.65 1.52.44 3.51-.61 3.83-2.13 8.4-4.14 11.71-7.05-4.37-2.09-8.89-5.29-14.02-5.88l-21.76-2.47c-1.81-.21-3.66.83-4.01 1.89-1.02 3.06 2.65 6.82 6.43 9.93" style="fill:#ec297b"/><path d="M252.87 251.32c4.72.75 9.64 0 14.93 1.78 1.72.58 4.93-.53 4.66-2.24-.38-2.35-3.03-3.44-3.91-4.86.81-.68.99-.97-.06-1.39l-10.09.14c-5.23.07-9.76-1.27-15.82-3.12 1.18 3.23 1.64 5.53 1.45 9.06 3.43-.26 6.07.19 8.84.63" class="cls-11"/><path d="M260.15 170.21c-1.97.69-3.7 2.46-5.18 5.31-2.21.54-6.09 2.28-4.77 4.93-10.76 7.53-23.67 10.04-36.3 12.04 1.23 11.71 9.77 36.22 24.92 27.85l1.78 1.4c5.1-3.2 10.03-4.55 14.77-4.05 3.88 2.89 8.81 3.76 14.79 2.63 4.89 4.42 9.62 9.04 14.2 13.87l-.63 2.74c-3.63-.43-11.28 3.29-11.71 7.05-1.79.31-2.94.98-3.45 2l-.69 2.23c4.4 3.22 2.64 3.82-5.29 1.79l-8.07-.49-1.63 1.79c-9.46-.32-19.53 3.13-10.19 13.45 7.38 8.15 30.99 11.67 40.22 4.86 18.66-5.34 34.01-19.11 40.29-37.91l12.92-38.71 1.15-7.46-.5-1.35c-3.12 1.51-6.16 3.38-9.11 5.6-1.06.03-.91.03-2.54 1.28-4.74 9.39-14.44 10.7-24.06 7.81-17.86-5.38-21.33-14.21-27.59-30.2-4.69-4.73-12.03-5.71-13.33 1.51Z" class="cls-5"/><path d="M327.66 189.81c4.01.5 4.81-4.71 9.62-4.26l-.02-3.35c-3.76 1.72-6.6 4.8-9.59 7.6Z" class="cls-2"/><path d="M258.61 168.94c-1.36 2.27-.67 2.73 1.54 1.27 1.5-1.66 3.61-2.97 5.3-3.19 5.38-.69 9.65 6.04 11.65 12.8 2.63 8.85 8.83 15.04 17.14 18.62 7.16 3.08 14.73 5.4 22.49 2.76 5.3-1.8 12.64-10.2 8.39-10.1-13.97 10.01-40.03 6.5-46.54-12.89l-4.72-14.06c-1.12-3.33-6.36-3.71-9.79-2.28-2.41 1-4.09 4.41-5.46 7.08Z" class="cls-11"/><path d="M254.96 175.52c2.14-1.28 3.52-3.47 5.18-5.31l-1.54-1.27c-1.04 2.03-3.43 4.09-3.64 6.58" class="cls-2"/><path d="M278.98 202.5c-3.56-3.81-8.17-3.82-13.84-.01-3.88-3.38-7.88-5.49-12.01-6.32l-6.31 2.29c-.02-1.29-.9-2.23-2.63-2.82-2.66.73-5.66 6.79-4.05 10.06 2.66 5.4 19.15 5.28 27.75 1.26l6.86 2.04c1.77.53 3.78-.45 4.6-1.77.74-1.19-.09-3.05-.38-4.72Z" class="cls-11"/><path d="M244.2 195.65c.54 2.47.49 4.52 2.73 5.97 2.24-2.51 4.59-3.59 7.38-3.5 4.11.13 6.79 6.23 10.95 6.35 3.69.11 5.68-6.36 13.71-1.97-1.53-8.55-13.81-.49-18.39-6.12-6.08-7.47-10.05 2.48-16.38-.74Zm24.29 48.95.06 1.39L272 244z" class="cls-2"/></g></svg>