<svg xmlns="http://www.w3.org/2000/svg" width="399" height="376" fill="none"><path stroke="#F6F" stroke-miterlimit="10" stroke-width="12" d="m356.024 153.098 34.093 32.739-23.169 32.626"/><path fill="#F6F" stroke="#F6F" d="M269.878 192.168a105 105 0 0 1-3.1 3.716c38.506 8.097 80.45 5.283 119.621-7.842a21 21 0 0 1-1.581-1.149 80 80 0 0 1-1.629-1.326c-.486-.402-.83-.686-.978-.784-.198-.133-.6-.453-1.066-.824a75 75 0 0 0-1.636-1.273c-.582-.435-1.152-.837-1.619-1.11a4 4 0 0 0-.572-.286 1 1 0 0 0-.14-.041c-34.633 11.814-72.158 15.785-107.3 10.919Zm-257.783-6.822c4.761 2.74 9.531 5.479 14.316 8.181v.001c43.48 24.569 91.229 47.982 145.385 44.424 25.052-1.648 50.733-8.881 72.287-23.427 7.604-5.133 14.668-11.218 20.807-18.023a200 200 0 0 1-13.072-3.325c-29.777 30.516-76.015 41.427-116.047 38.261-45.84-3.627-85.917-24.576-123.676-46.092Zm243.073 4.236q-1.26 1.416-2.563 2.781a199 199 0 0 0 13.049 3.283 104 104 0 0 0 3.072-3.643 202 202 0 0 1-13.558-2.421Zm8.489-90.287a50 50 0 0 1 4.798 5.889 53 53 0 0 1 6.452 12.629c7.143 20.267.897 43.414-12.083 62.062a104 104 0 0 1-6.896 8.842c4.457.944 8.967 1.739 13.519 2.382 8.323-10.578 14.405-22.598 16.988-35.322 4.587-22.597-3.888-43.574-22.021-56.144l-.211-.147q-.046 0-.065-.002a.7.7 0 0 1-.161-.04 3 3 0 0 1-.246-.11zm-45.643 78.063c7.388 4.538 15.054 8.454 23.537 11.461a192 192 0 0 0 9.969 3.227q1.285-1.332 2.527-2.713c-10.592-2.34-20.881-5.533-30.71-9.617v-.001a114 114 0 0 1-5.323-2.357Zm-12.74-84.345c-21.263 12.077-27.416 35.526-18.279 54.861l.001.001c4.499 9.534 12.003 16.499 20.601 22.605-2.563-2.489-4.9-5.202-6.906-8.151-5.702-8.384-9.026-18.704-8.129-29.316 1.716-20.357 19.913-36.067 40.141-39.824 8.726-1.625 17.387-.844 25.141 2.17l-.418-.322.073-.103c-6.222-4.037-12.706-7.44-20.482-8.533l-1.041-.132c-10.277-1.147-21.294 1.4-30.702 6.744Z"/></svg>