<svg xmlns="http://www.w3.org/2000/svg" width="430" height="88" fill="none"><path fill="#fff" d="m38.81 0 5.82 21.83-5.82 8.247-5.822-8.247zm27.442 11.367L54.932 30.92l-9.948 1.715 1.715-9.948zM77.619 38.81l-21.83 5.82-8.247-5.82 8.247-5.822zM66.253 66.252 46.7 54.932l-1.715-9.948 9.948 1.715zM38.81 77.619l-5.822-21.83 5.822-8.247 5.821 8.247zM11.367 66.252 22.687 46.7l9.948-1.715-1.715 9.948zM0 38.81l21.83-5.822 8.247 5.822-8.247 5.821zm11.366-27.443 19.553 11.32 1.715 9.948-9.948-1.715zm82.438 1.413h18.204q8.933 0 14.817 3.598 5.927 3.557 8.891 9.864 2.963 6.309 2.963 14.437 0 8.17-2.963 14.478-2.964 6.309-8.891 9.907-5.884 3.598-14.817 3.598H93.804zm14.733 12.997v29.888h2.159q4.064 0 6.773-1.947 2.752-1.99 4.149-5.377 1.44-3.387 1.44-7.578 0-4.233-1.398-7.62t-4.148-5.377q-2.752-1.99-6.816-1.99zm34.317-12.997h36.704v12.827h-21.972v8.848h21.888V46.86h-21.888v8.976h21.972v12.827h-36.704zm106.014 0v55.882h-14.733V38.604l.636-10.541-2.414 12.235-7.832 23.369h-14.394l-7.789-23.37-2.371-12.234.593 10.541v30.058h-14.691V12.78h20.914l9.695 34.757.889 5.038.846-5.038 9.695-34.757zm37.299 42.293q3.344 0 6.308-1.017 2.963-1.015 4.529-2.032l6.266 12.49q-1.99 1.692-6.858 3.428-4.827 1.737-11.431 1.736-6.18 0-11.642-2.159-5.461-2.16-9.695-6.054a28.2 28.2 0 0 1-6.562-9.144q-2.37-5.292-2.37-11.515 0-6.225 2.37-11.515 2.371-5.335 6.562-9.23 4.191-3.936 9.653-6.096 5.504-2.2 11.684-2.201 6.604 0 11.431 1.736 4.868 1.736 6.858 3.429l-6.266 12.489q-1.566-1.017-4.529-2.033t-6.308-1.016q-4.149 0-7.113 1.228-2.92 1.229-4.784 3.302a13.6 13.6 0 0 0-2.751 4.615 16.2 16.2 0 0 0-.847 5.165q0 2.667.847 5.25a13.6 13.6 0 0 0 2.751 4.614q1.863 2.074 4.784 3.302 2.964 1.227 7.113 1.228m35.85-14.394q0 4.233 1.694 7.705 1.735 3.429 4.826 5.46 3.09 2.033 7.197 2.033 4.106 0 7.197-2.032 3.09-2.032 4.783-5.461 1.736-3.472 1.736-7.705t-1.736-7.663q-1.692-3.429-4.783-5.461-3.091-2.075-7.197-2.075-4.107 0-7.197 2.075-3.091 2.032-4.826 5.461-1.694 3.429-1.694 7.663m-15.368 0q0-6.097 2.202-11.346 2.202-5.291 6.138-9.23 3.938-3.936 9.23-6.138 5.334-2.2 11.515-2.201 6.265 0 11.557 2.201t9.229 6.139q3.938 3.936 6.096 9.229 2.16 5.25 2.16 11.346 0 6.138-2.117 11.43-2.116 5.25-6.012 9.23-3.852 3.936-9.187 6.138-5.334 2.2-11.726 2.201-6.605 0-11.939-2.201t-9.187-6.139q-3.81-3.98-5.884-9.229-2.075-5.292-2.075-11.43M382.641 26.2l1.101.212v42.25h-14.733V12.78h19.982l20.194 42.166-1.058.211V12.78h14.69v55.882H402.75z"/></svg>